0 FILE auto_transporter.io
0 Untitled Model
0 Name:  auto_transporter
0 Author:  
0 CustomBrick
0 FlexibleBrickControlPointUnitLength -1
0 FlexibleBrickLockedControlPoint 
1 16 0.000000 0.000000 0.000000 1.000000 0.000000 0.000000 0.000000 1.000000 0.000000 0.000000 0.000000 1.000000 drive_base
0 STEP
1 16 -365.750200 -92.000400 348.099500 0.000000 0.000000 1.000000 0.000000 1.000000 0.000000 -1.000000 0.000000 0.000000 bumper
0 STEP
1 16 -355.000100 -303.285500 -96.605960 0.000001 0.000000 1.000000 -0.173646 0.984808 0.000000 -0.984808 -0.173646 0.000001 carrier
1 0 -293.460400 -229.000600 100.076200 1.000000 0.000000 0.000000 0.000000 1.000000 0.000000 0.000000 0.000000 1.000000 2780.dat
1 0 -293.460400 -169.000600 100.076200 1.000000 0.000000 0.000000 0.000000 1.000000 0.000000 0.000000 0.000000 1.000000 2780.dat
0 STEP
1 16 -152.000000 -258.000700 -68.999850 1.000000 0.000000 0.000000 0.000000 -1.000000 0.000000 0.000000 0.000000 -1.000000 ultrasonic_sensor_mount
0 STEP
1 16 -128.823100 -20.500590 270.230400 1.000000 0.000000 0.000000 0.000000 1.000000 0.000000 0.000000 0.000000 1.000000 color_sensor_mount
0 STEP
1 16 -245.000100 -231.034500 -22.018770 0.000000 0.000000 1.000000 -0.173646 0.984808 0.000000 -0.984808 -0.173646 0.000000 cuboid
0 STEP
0 NOFILE
0 FILE drive_base
0 drive_base
0 Name:  drive_base
0 Author:  SHIN KUBOAKI
0 CustomBrick
0 FlexibleBrickControlPointUnitLength -1
0 FlexibleBrickLockedControlPoint 
1 151 -123.425600 -29.000550 100.077900 1.000000 0.000000 0.000000 0.000000 1.000000 0.000000 0.000000 0.000000 1.000000 95658.dat
1 1 -103.425600 -89.000550 60.077880 1.000000 0.000000 0.000000 0.000000 1.000000 0.000000 0.000000 0.000000 1.000000 6558.dat
0 STEP
1 71 -103.425600 -89.000550 20.077890 0.000000 -1.000000 0.000000 1.000000 0.000000 0.000000 0.000000 0.000000 1.000000 32271.dat
0 STEP
1 0 -111.710100 -89.838180 20.076150 1.000000 0.000000 0.000000 0.000000 1.000000 0.000000 0.000000 0.000000 1.000000 3705.dat
1 1 -93.425630 -57.000560 164.077900 -1.000000 0.000000 0.000000 0.000000 0.804822 0.593516 0.000000 0.593516 -0.804822 43093.dat
1 4 -151.710100 -89.003520 20.076140 0.000000 0.000000 1.000000 0.000000 1.000000 0.000000 -1.000000 0.000000 0.000000 59443.dat
0 STEP
1 0 -93.425620 -89.000560 100.077900 1.000000 0.000000 0.000000 0.000000 1.000000 0.000000 0.000000 0.000000 1.000000 2780.dat
1 1 -103.425600 -89.000550 140.077900 -1.000000 0.000000 0.000000 0.000000 0.804822 -0.593516 0.000000 -0.593516 -0.804822 6558.dat
1 1 -103.425600 -89.000560 120.077900 -1.000000 0.000000 0.000000 0.000000 1.000000 0.000000 0.000000 0.000000 -1.000000 6558.dat
0 STEP
1 71 -83.425630 -9.000549 100.077900 0.000000 -1.000000 0.000000 0.000000 0.000000 -1.000000 1.000000 0.000000 0.000000 32526.dat
1 0 -70.000020 -49.000700 100.000000 1.000000 0.000000 0.000000 0.000000 1.000000 0.000000 0.000000 0.000000 1.000000 2780.dat
1 0 -70.000020 -9.000700 100.000000 1.000000 0.000000 0.000000 0.000000 1.000000 0.000000 0.000000 0.000000 1.000000 2780.dat
0 STEP
1 72 -74.000000 -29.000000 100.000000 -1.000000 0.000000 0.000000 0.000000 1.000000 0.000001 0.000000 0.000001 -1.000000 55013.dat
0 STEP
1 0 -60.000020 -29.000710 100.000000 0.000000 -1.000000 0.000000 0.000000 0.000000 -1.000000 1.000000 0.000000 0.000000 32523.dat
0 STEP
1 15 -83.425660 -25.000580 248.077900 0.000000 -1.000000 0.000000 -1.000000 0.000000 0.000000 0.000000 0.000000 -1.000000 32348.dat
1 1 -93.425630 -73.000560 152.077900 1.000000 0.000000 0.000000 0.000000 0.800000 -0.600000 0.000000 0.600000 0.800000 43093.dat
1 72 -56.915650 -25.000570 248.077900 -1.000000 0.000000 0.000000 0.000000 1.000000 0.000000 0.000000 0.000000 -1.000000 87083.dat
0 STEP
1 71 -183.425600 -109.000600 140.077900 0.000000 0.000000 1.000000 1.000000 0.000000 0.000000 0.000000 1.000000 0.000000 64179.dat
1 0 -223.425600 -159.000600 140.077900 0.000000 0.000000 1.000000 -1.000000 0.000000 0.000000 0.000000 -1.000000 0.000000 2780.dat
1 0 -143.425600 -159.000500 140.077900 0.000000 0.000000 1.000000 -1.000000 0.000000 0.000000 0.000000 -1.000000 0.000000 2780.dat
0 STEP
1 1 -242.100400 -69.000430 130.100100 0.000000 0.000000 1.000000 0.000000 1.000000 0.000000 -1.000000 0.000000 0.000000 43093.dat
1 1 -123.427500 -68.999740 130.080600 0.000000 0.000000 1.000024 0.000000 1.000000 0.000000 -1.000024 0.000000 0.000000 43093.dat
0 STEP
1 71 -123.425600 -69.000550 120.077900 0.000000 -0.000001 -1.000000 0.000000 -1.000000 0.000001 -1.000000 0.000000 0.000000 6536.dat
1 71 -242.100100 -69.000370 120.099600 0.000000 -0.000001 -1.000000 0.000000 -1.000000 0.000001 -1.000000 0.000000 0.000000 6536.dat
0 STEP
0 STEP
1 71 -181.710100 -89.000680 20.076140 1.000000 0.000000 0.000000 0.000000 1.000000 0.000000 0.000000 0.000000 1.000000 4519.dat
0 STEP
1 151 -242.100000 -29.000360 100.099600 1.000000 0.000000 0.000000 0.000000 1.000000 0.000000 0.000000 0.000000 1.000000 95658.dat
1 1 -262.100000 -89.000380 60.099620 -1.000000 0.000000 0.000000 0.000000 1.000000 0.000000 0.000000 0.000000 -1.000000 6558.dat
0 STEP
1 71 -262.100000 -89.000380 20.099620 0.000000 -1.000000 0.000000 1.000000 0.000000 0.000000 0.000000 0.000000 1.000000 32271.dat
1 0 -272.100000 -89.000380 100.099600 1.000000 0.000000 0.000000 0.000000 1.000000 0.000000 0.000000 0.000000 1.000000 2780.dat
1 1 -262.100100 -89.000380 120.099600 1.000000 0.000000 0.000000 0.000000 1.000000 0.000000 0.000000 0.000000 1.000000 6558.dat
1 1 -262.100100 -89.000380 140.099600 1.000000 0.000000 0.000000 0.000000 1.000000 0.000000 0.000000 0.000000 1.000000 6558.dat
1 1 -272.100000 -57.000400 164.099600 1.000000 0.000000 0.000000 0.000000 0.804822 -0.593517 0.000000 0.593517 0.804822 43093.dat
0 STEP
1 0 -251.710400 -89.000670 20.076190 -1.000000 0.000000 0.000000 0.000000 1.000000 0.000000 0.000000 0.000000 -1.000000 3705.dat
1 4 -211.710100 -89.003520 20.076110 0.000000 0.000000 -1.000000 0.000000 1.000000 0.000000 1.000000 0.000000 0.000000 59443.dat
0 STEP
1 71 -282.100100 -9.000380 100.099600 0.000000 -1.000000 0.000000 0.000000 0.000000 -1.000000 1.000000 0.000000 0.000000 32526.dat
1 0 -291.489000 -48.999890 100.077100 1.000000 0.000000 0.000000 0.000000 1.000000 0.000000 0.000000 0.000000 1.000000 2780.dat
1 0 -291.489000 -8.999889 100.077100 1.000000 0.000000 0.000000 0.000000 1.000000 0.000000 0.000000 0.000000 1.000000 2780.dat
0 STEP
1 72 -291.489000 -28.999880 100.077100 1.000000 0.000000 0.000000 0.000000 1.000000 0.000001 0.000000 -0.000001 1.000000 55013.dat
0 STEP
1 0 -301.489000 -28.999890 100.077100 0.000000 -1.000000 0.000000 0.000000 0.000000 -1.000000 1.000000 0.000000 0.000000 32523.dat
0 STEP
1 15 -282.100100 -25.000390 248.099600 0.000000 -1.000000 0.000000 -1.000000 0.000000 0.000000 0.000000 0.000000 -1.000000 32348.dat
1 1 -272.100100 -73.000400 152.099600 -1.000000 0.000000 0.000000 0.000000 0.800000 0.600000 0.000000 0.600000 -0.800000 43093.dat
1 72 -310.100100 -25.000390 248.099600 1.000000 0.000000 0.000000 0.000000 1.000000 -0.000001 0.000000 0.000001 1.000000 87083.dat
0 STEP
0 STEP
1 71 -182.356900 -29.000560 -59.922100 0.000000 0.000000 -1.000000 0.000000 1.000000 0.000000 1.000000 0.000000 0.000000 64178.dat
0 STEP
1 4 -263.375600 -29.000560 -79.922080 1.000000 0.000000 0.000000 0.000000 1.000000 0.000000 0.000000 0.000000 1.000000 32054.dat
1 4 -263.375600 -29.000540 -39.922050 1.000000 0.000000 0.000000 0.000000 1.000000 0.000000 0.000000 0.000000 1.000000 32054.dat
1 4 -103.425600 -29.000550 -79.922130 -1.000000 0.000000 0.000000 0.000000 1.000000 0.000000 0.000000 0.000000 -1.000000 32054.dat
1 4 -103.425600 -29.000550 -39.922130 -1.000000 0.000000 0.000000 0.000000 1.000000 0.000000 0.000000 0.000000 -1.000000 32054.dat
0 STEP
1 4 -203.375900 -29.000590 -179.921800 0.000000 1.000000 0.000000 -1.000000 0.000000 0.000000 0.000000 0.000000 1.000000 32140.dat
1 71 -183.375400 -29.000610 -179.921700 1.000000 0.000000 0.000000 0.000000 1.000000 0.000000 0.000000 0.000000 1.000000 4519.dat
1 1 -183.375400 -29.000610 -139.921500 1.000000 0.000000 0.000000 0.000000 1.000000 0.000000 0.000000 0.000000 1.000000 6558.dat
0 STEP
1 71 -223.375400 -29.000600 -119.922100 0.000000 0.000000 -1.000000 -1.000000 0.000000 0.000000 0.000000 1.000000 0.000000 55615.dat
0 STEP
1 72 -181.895400 10.999400 -159.921800 0.000000 1.000000 0.000000 0.000000 0.000000 -1.000000 -1.000000 0.000000 0.000000 92911.dat
0 STEP
1 4 -163.375400 -29.000610 -179.921700 0.000000 1.000000 0.000000 -1.000000 0.000000 0.000000 0.000000 0.000000 1.000000 32140.dat
0 STEP
1 71 -143.375400 -29.000610 -119.922100 0.000000 0.000000 1.000000 1.000000 0.000000 0.000000 0.000000 1.000000 0.000000 55615.dat
0 STEP
1 0 -243.375400 -49.000630 -119.922100 0.000000 1.000000 0.000003 -1.000000 0.000000 0.000000 0.000000 -0.000003 1.000000 32184.dat
1 0 -243.375100 -49.000630 -109.922000 0.000000 0.000000 1.000006 0.000000 1.000006 0.000000 -1.000000 0.000000 0.000000 2780.dat
1 1 -263.375500 -39.000630 -119.922100 0.000000 0.000000 1.000000 -1.000000 0.000000 0.000000 0.000000 -1.000000 0.000000 43093.dat
1 1 -223.375500 -39.000630 -119.922100 0.000000 0.000000 1.000000 -1.000000 0.000000 0.000000 0.000000 -1.000000 0.000000 43093.dat
1 0 -123.375500 -49.000630 -119.922100 0.000000 1.000000 0.000003 -1.000000 0.000000 0.000000 0.000000 -0.000003 1.000000 32184.dat
1 0 -123.375100 -49.000540 -109.921900 0.000000 0.000000 1.000009 0.000000 1.000009 0.000000 -1.000000 0.000000 0.000000 2780.dat
1 1 -143.375400 -39.000630 -119.922100 0.000000 0.000000 1.000000 -1.000000 0.000000 0.000000 0.000000 -1.000000 0.000000 43093.dat
1 1 -103.375500 -39.000720 -119.922100 0.000000 0.000000 1.000000 -1.000000 0.000000 0.000000 0.000000 -1.000000 0.000000 43093.dat
0 STEP
1 80 -181.895400 10.999400 -159.921800 1.000000 0.000000 0.000000 0.000000 1.000000 0.000000 0.000000 0.000000 1.000000 99948.dat
0 STEP
0 STEP
1 0 -143.360100 -129.000700 -109.923900 0.000000 0.000000 1.000000 0.000000 -1.000000 0.000000 1.000000 0.000000 0.000000 2780.dat
1 0 -123.360100 -129.000700 -109.923900 0.000000 0.000000 1.000000 0.000000 -1.000000 0.000000 1.000000 0.000000 0.000000 2780.dat
1 0 -223.375600 -129.000500 -109.922100 0.000000 0.000000 1.000000 0.000000 -1.000000 0.000000 1.000000 0.000000 0.000000 2780.dat
1 0 -243.375600 -129.000600 -109.922100 0.000000 0.000000 1.000000 0.000000 -1.000000 0.000000 1.000000 0.000000 0.000000 2780.dat
0 STEP
1 71 -183.360100 -129.000700 -119.923800 0.000000 0.000000 -1.000000 1.000000 0.000000 0.000000 0.000000 -1.000000 0.000000 32316.dat
1 4 -123.360000 -149.000700 -119.923800 0.000000 -1.000000 0.000000 0.000000 0.000000 -1.000000 1.000000 0.000000 0.000000 44809.dat
1 4 -243.375600 -149.000600 -119.922100 0.000000 -1.000000 0.000000 0.000000 0.000000 -1.000000 1.000000 0.000000 0.000000 44809.dat
0 STEP
1 0 -243.375600 -159.000600 -99.922060 0.000000 -1.000000 0.000000 1.000000 0.000000 0.000000 0.000000 0.000000 1.000000 2780.dat
1 0 -123.360000 -159.000700 -99.923860 0.000000 -1.000000 0.000000 1.000000 0.000000 0.000000 0.000000 0.000000 1.000000 2780.dat
0 STEP
0 STEP
0 STEP
1 15 -83.425620 -89.000530 100.077900 0.000000 -1.000000 0.000000 0.000000 0.000000 1.000000 -1.000000 0.000000 0.000000 32009.dat
1 1 -93.425460 -249.000500 100.077700 1.000000 0.000000 0.000000 0.000000 -1.000000 0.000000 0.000000 0.000000 -1.000000 43093.dat
1 0 -93.425540 -209.000500 100.077900 1.000000 0.000000 0.000000 0.000000 1.000000 0.000000 0.000000 0.000000 1.000000 2780.dat
0 STEP
1 71 -31.705090 -29.000000 100.000000 0.000000 0.000000 -1.000000 1.000000 0.000000 0.000000 0.000000 -1.000000 0.000000 56908.dat
1 0 -33.011400 -29.000170 100.000500 0.000000 0.000000 1.000000 1.000000 0.000000 0.000000 0.000000 1.000000 0.000000 41897.dat
0 STEP
1 15 -1.820010 -29.000000 100.000000 0.000000 -1.000000 0.000000 -1.000000 0.000000 0.000000 0.000000 0.000000 -1.000000 41669.dat
0 STEP
1 15 -283.460400 -89.000640 100.076200 0.000000 -1.000000 0.000000 0.000000 0.000000 1.000000 -1.000000 0.000000 0.000000 32009.dat
1 0 -273.460000 -209.000600 100.076100 1.000000 0.000000 0.000000 0.000000 1.000000 0.000000 0.000000 0.000000 1.000000 2780.dat
1 1 -273.460000 -249.000600 100.076200 -1.000000 0.000000 0.000000 0.000000 1.000000 0.000000 0.000000 0.000000 -1.000000 43093.dat
0 STEP
1 71 -333.568900 -28.999890 100.077100 0.000000 0.000000 1.000000 1.000000 0.000000 0.000000 0.000000 1.000000 0.000000 56908.dat
1 0 -332.263900 -28.999550 100.076700 0.000000 0.000000 -1.000000 1.000000 0.000000 0.000000 0.000000 -1.000000 0.000000 41897.dat
0 STEP
1 15 -363.568900 -28.999890 100.077100 0.000000 1.000000 0.000000 1.000000 0.000000 0.000000 0.000000 0.000000 -1.000000 41669.dat
1 15 -233.460000 -140.400600 -39.923800 1.000000 0.000000 0.000000 0.000000 1.000000 0.000000 0.000000 0.000000 1.000000 mf281352a_2023610_011822.dat
0 STEP
0 NOFILE
0 FILE bumper
0 bumper
0 Name:  bumper
0 Author:  
0 CustomBrick
0 FlexibleBrickControlPointUnitLength -1
0 FlexibleBrickLockedControlPoint 
0 NumOfBricks:  39
1 1 120.000000 6.999960 20.000010 0.000001 -1.000000 0.000000 0.000000 0.000000 1.000000 -1.000000 -0.000001 0.000000 6558.dat
1 4 140.000000 66.999970 19.999990 -1.000000 0.000000 0.000000 0.000000 0.000000 -1.000000 0.000000 -1.000000 0.000000 32140.dat
0 STEP
1 71 100.000000 7.000000 40.000000 0.000000 0.000000 1.000000 0.000000 1.000000 0.000000 -1.000000 0.000000 0.000000 32073.dat
1 0 21.222450 -74.203990 -0.000030 0.809006 0.000001 0.587799 -0.587799 0.000000 0.809006 0.000000 -1.000000 0.000000 6629.dat
0 STEP
1 151 100.000000 7.000000 40.000000 0.000000 0.000000 1.000000 0.000000 1.000000 0.000000 -1.000000 0.000000 0.000000 95648.dat
0 STEP
1 71 139.995400 7.606520 40.000040 0.000001 -0.015165 0.999885 0.000000 0.999885 0.015165 -1.000000 0.000000 0.000001 32073.dat
1 71 140.000000 66.999970 51.090000 0.000000 0.000000 1.000000 0.000000 1.000000 0.000000 -1.000000 0.000000 0.000000 44294.dat
0 STEP
1 4 99.999980 67.000000 60.000020 -1.000000 0.000000 0.000000 0.000000 0.000000 -1.000000 0.000000 -1.000000 0.000000 32140.dat
1 0 21.222330 -74.204050 81.239970 0.809007 0.000001 0.587799 -0.587799 0.000000 0.809007 0.000000 -1.000000 0.000000 6629.dat
0 STEP
1 0 80.002330 6.696640 40.910000 0.000000 0.000000 1.000000 0.000000 1.000000 0.000000 -1.000000 0.000000 0.000000 3706.dat
1 14 80.002320 6.696640 95.790000 1.000000 0.000000 0.000000 0.000000 1.000000 0.000000 0.000000 0.000000 1.000000 32123a.dat
1 14 80.002360 6.696640 -14.090000 1.000000 0.000000 0.000000 0.000000 1.000000 0.000000 0.000000 0.000000 1.000000 32123a.dat
0 STEP
1 19 21.222450 -74.203990 9.999969 0.000000 0.809007 -0.587799 0.000000 -0.587800 -0.809007 -1.000000 0.000000 0.000000 3749.dat
1 19 21.222330 -74.204040 71.239970 -0.000001 -0.587799 0.809007 0.000000 -0.809007 -0.587799 1.000000 0.000000 0.000000 3749.dat
0 STEP
1 71 0.516780 3.070050 19.999980 -0.965925 0.000001 0.258821 -0.258821 0.000000 -0.965925 -0.000001 -1.000000 -0.000001 40490.dat
1 1 16.046000 -54.885360 40.000060 0.000000 -0.258821 -0.965925 -0.000001 0.965924 -0.258819 1.000000 0.000001 -0.000001 6558.dat
1 1 -4.659740 22.388520 40.000060 0.000000 -0.258821 -0.965925 -0.000001 0.965924 -0.258819 1.000000 0.000001 -0.000001 6558.dat
1 1 0.516720 3.070000 40.000080 0.000000 -0.258821 -0.965925 -0.000001 0.965924 -0.258819 1.000000 0.000001 -0.000001 6558.dat
0 STEP
0 STEP
1 4 10.869760 -35.567730 39.999190 0.965924 -0.000001 0.258821 0.258819 -0.000001 -0.965922 0.000001 0.999984 -0.000001 32140.dat
1 71 10.869530 -35.566820 40.000060 -0.000001 -0.965926 0.258821 0.000000 -0.258820 -0.965924 1.000000 -0.000001 -0.000001 4519.dat
0 STEP
1 4 -4.659750 22.388510 40.000060 -0.965926 0.000001 0.258821 -0.258820 0.000000 -0.965924 -0.000001 -1.000000 -0.000001 32523.dat
0 STEP
1 71 0.516710 3.070000 60.000100 -0.965926 0.000001 0.258821 -0.258820 0.000000 -0.965924 -0.000001 -1.000000 -0.000001 40490.dat
0 STEP
1 0 -20.188970 80.343940 80.000140 -0.965925 0.000000 0.258821 -0.258821 0.000001 -0.965925 0.000000 -1.000000 -0.000002 33299.dat
1 0 -20.188780 80.344100 122.025000 0.000000 -0.258821 0.965925 0.000001 0.965925 0.258821 -1.000000 0.000001 0.000000 3708.dat
1 72 -15.012420 61.025490 137.805000 0.000000 0.258821 0.965926 -0.000001 -0.965926 0.258821 1.000000 -0.000001 0.000000 42003.dat
1 72 -15.012440 61.025460 196.555000 0.000000 0.258821 0.965926 -0.000001 -0.965925 0.258821 1.000000 -0.000001 0.000000 42003.dat
0 STEP
1 71 -20.188780 80.344100 39.944960 0.000000 -0.965922 -0.258834 0.000000 -0.258833 0.965922 -1.000000 0.000000 0.000000 63869.dat
1 0 -36.918450 65.508540 19.945020 0.258826 0.965902 0.000000 -0.965907 0.258824 -0.000001 -0.000001 0.000000 1.000000 2780.dat
1 1 -36.918450 65.508480 59.944970 0.258826 0.965902 -0.000001 -0.965907 0.258824 0.000000 0.000000 0.000000 1.000000 43093.dat
1 15 -34.329960 55.849280 59.944860 0.965908 0.258802 0.000000 0.258800 -0.965913 0.000001 0.000000 -0.000001 -1.000000 32348.dat
0 STEP
1 71 -29.154500 36.530570 177.805000 0.258821 -0.965925 0.000000 -0.965925 -0.258821 0.000001 -0.000001 0.000000 -1.000000 32525.dat
1 0 -19.495240 39.118780 197.805000 0.965925 0.000000 -0.258821 0.258821 0.000000 0.965926 0.000000 -1.000000 0.000000 2780.dat
1 0 -19.495250 39.118820 137.805000 0.965925 0.000000 -0.258821 0.258821 0.000001 0.965925 0.000000 -1.000000 0.000000 2780.dat
0 STEP
0 STEP
1 4 -20.188020 80.341220 242.175000 0.965925 -0.258821 0.000000 0.258821 0.965925 -0.000001 0.000000 0.000001 1.000000 59443.dat
1 71 -20.188770 80.343990 292.175000 0.000000 -0.258821 0.965925 0.000001 0.965925 0.258821 -1.000000 0.000001 0.000000 32073.dat
0 STEP
1 71 -19.626710 80.311150 317.408500 0.000000 -0.965919 -0.258815 0.000001 -0.258808 0.965940 -1.000000 0.000000 0.000001 63869.dat
1 0 -36.357040 65.475300 337.410100 0.258816 0.965920 0.000000 -0.965939 0.258809 -0.000001 -0.000001 0.000000 1.000000 2780.dat
1 1 -36.356990 65.475420 297.409800 0.258816 0.965920 0.000000 -0.965939 0.258809 -0.000001 0.000000 0.000000 1.000000 43093.dat
1 15 -33.769100 55.816660 297.409200 0.965927 -0.258818 0.000000 0.258819 0.965926 -0.000001 0.000000 0.000001 1.000000 32348.dat
0 STEP
0 NOFILE
0 FILE carrier
0 carrier
0 Name:  carrier
0 Author:  
0 CustomBrick
0 FlexibleBrickControlPointUnitLength -1
0 FlexibleBrickLockedControlPoint 
0 NumOfBricks:  31
1 71 -70.000000 -10.000000 10.000000 0.000000 0.000000 1.000000 1.000000 0.000000 0.000000 0.000000 1.000000 0.000000 40490.dat
1 0 9.999990 -10.000000 0.000000 0.000000 0.000000 -1.000000 0.000000 1.000000 0.000000 1.000000 0.000000 0.000000 2780.dat
1 0 -30.000010 -10.000000 20.000000 0.000000 0.000000 1.000000 0.000000 1.000000 0.000000 -1.000000 0.000000 0.000000 2780.dat
1 0 -50.000000 -10.000000 0.000000 0.000000 0.000000 1.000000 0.000000 1.000000 0.000000 -1.000000 0.000000 0.000000 2780.dat
1 0 -130.000000 -10.000000 20.000000 0.000000 0.000000 1.000000 0.000000 1.000000 0.000000 -1.000000 0.000000 0.000000 2780.dat
1 1 -110.000000 -10.000000 30.000000 0.000000 0.000000 -1.000000 0.000000 1.000000 0.000000 1.000000 0.000000 0.000000 6558.dat
0 STEP
1 71 -170.000000 -10.000000 30.000010 0.000000 0.000000 1.000000 1.000000 0.000000 0.000000 0.000000 1.000000 0.000000 32524.dat
0 STEP
1 71 -70.000000 -10.000000 -9.999990 0.000000 0.000000 1.000000 1.000000 0.000000 0.000000 0.000000 1.000000 0.000000 40490.dat
1 1 -110.000000 -9.999990 -29.999980 0.000000 0.000000 1.000000 0.000000 1.000000 0.000000 -1.000000 0.000000 0.000000 6558.dat
1 0 -130.000000 -9.999990 -19.999970 0.000000 0.000000 1.000000 0.000000 1.000000 0.000000 -1.000000 0.000000 0.000000 2780.dat
1 0 -29.999980 -9.999980 -20.000010 0.000000 0.000000 1.000000 0.000000 1.000000 0.000000 -1.000000 0.000000 0.000000 2780.dat
0 STEP
1 71 -170.000000 -9.999990 -29.999970 0.000000 0.000000 1.000000 1.000000 0.000000 0.000000 0.000000 1.000000 0.000000 32524.dat
0 STEP
1 71 -9.975010 -9.999990 1.130020 0.000000 0.000000 1.000000 0.000000 1.000000 0.000000 -1.000000 0.000000 0.000000 44294.dat
0 STEP
1 15 -49.999980 -9.999980 -30.000000 0.000000 0.000000 1.000000 -1.000000 0.000000 0.000000 0.000000 -1.000000 0.000000 32526.dat
1 0 -49.999960 -9.999980 -39.999980 0.000000 0.000000 1.000000 0.000000 1.000000 0.000000 -1.000000 0.000000 0.000000 2780.dat
0 STEP
1 15 -50.000000 -10.000000 30.000000 0.000000 0.000000 1.000000 -1.000000 0.000000 0.000000 0.000000 -1.000000 0.000000 32526.dat
1 0 -50.000020 -10.000000 40.000020 0.000000 0.000000 1.000000 0.000000 1.000000 0.000000 -1.000000 0.000000 0.000000 2780.dat
0 STEP
1 71 -9.974979 -9.999990 -49.999970 0.000000 0.000000 -1.000000 -1.000000 0.000000 0.000000 0.000000 1.000000 0.000000 32271.dat
0 STEP
1 71 -9.999980 -9.999990 50.000020 0.000000 0.000000 -1.000000 -1.000000 0.000000 0.000000 0.000000 1.000000 0.000000 32271.dat
0 STEP
1 71 -153.975000 -42.000000 0.710010 0.000000 0.593516 0.804822 0.000000 0.804822 -0.593516 -1.000000 0.000000 0.000000 44294.dat
0 STEP
1 71 -9.975030 -50.000000 67.210020 0.000000 0.000000 -1.000000 1.000000 0.000000 0.000000 0.000000 -1.000000 0.000000 99773.dat
1 71 -9.974979 -50.000000 -64.999980 0.000000 0.000000 -1.000000 1.000000 0.000000 0.000000 0.000000 -1.000000 0.000000 99773.dat
1 71 -121.785100 -65.777910 -66.300020 -0.804822 0.000000 0.593516 0.593516 0.000000 0.804822 0.000000 1.000000 0.000000 99773.dat
1 71 -121.782200 -65.740650 67.020020 -0.804822 0.000000 0.593516 0.593516 0.000000 0.804822 0.000000 1.000000 0.000000 99773.dat
1 151 -213.071100 78.270830 29.999700 0.000000 -0.984809 -0.173642 0.000000 -0.173649 0.984770 -0.999960 0.000000 0.000000 95648.dat
0 STEP
1 1 -209.599200 58.581600 29.999370 0.000001 0.984808 -0.173649 0.000000 0.173650 0.984807 1.000000 0.000000 0.000000 6558.dat
1 71 -213.072100 78.277900 29.999380 0.000000 0.984808 -0.173649 0.000000 0.173650 0.984807 1.000000 0.000000 0.000000 4519.dat
0 STEP
1 0 -220.018700 117.673000 10.000080 -0.984808 -0.000001 0.173649 -0.173649 0.000000 -0.984808 0.000000 -1.000000 0.000000 6629.dat
0 STEP
1 71 -230.000000 -9.999980 10.000050 0.000000 0.593516 0.804822 0.000000 0.804822 -0.593516 -1.000000 0.000000 0.000000 32073.dat
1 71 -230.000000 -9.999990 -9.999949 0.804822 0.593516 0.000000 -0.593516 0.804822 0.000000 0.000000 0.000000 1.000000 3713.dat
0 STEP
1 0 -220.018100 117.670200 49.999400 -0.984808 -0.000001 0.173649 -0.173649 0.000000 -0.984808 0.000000 -1.000000 0.000000 6629.dat
0 STEP
0 NOFILE
0 FILE ultrasonic_sensor_mount
0 ultrasonic_sensor_mount
0 Name:  ultrasonic_sensor_mount
0 Author:  
0 CustomBrick
0 FlexibleBrickControlPointUnitLength -1
0 FlexibleBrickLockedControlPoint 
0 NumOfBricks:  10
1 71 90.000000 -10.000000 -30.000000 0.000000 -1.000000 0.000000 1.000000 0.000000 0.000000 0.000000 0.000000 1.000000 32524.dat
1 1 70.000000 -10.000000 -50.000000 -1.000000 0.000000 0.000000 0.000000 1.000000 0.000000 0.000000 0.000000 -1.000000 6558.dat
1 1 70.000000 -10.000000 -10.000010 -1.000000 0.000000 0.000000 0.000000 1.000000 0.000000 0.000000 0.000000 -1.000000 6558.dat
1 0 80.000000 -10.000000 29.999990 1.000000 0.000000 0.000000 0.000000 1.000000 0.000000 0.000000 0.000000 1.000000 2780.dat
1 0 80.000000 -10.000000 -89.999980 1.000000 0.000000 0.000000 0.000000 1.000000 0.000000 0.000000 0.000000 1.000000 2780.dat
0 STEP
1 0 70.000000 30.000010 -69.999980 0.000000 1.000000 0.000000 0.000000 0.000000 -1.000000 -1.000000 0.000000 0.000000 60484.dat
1 0 70.000000 30.000000 10.000000 0.000000 1.000000 0.000000 0.000000 0.000000 -1.000000 -1.000000 0.000000 0.000000 60484.dat
0 STEP
1 0 80.000000 30.000000 10.000000 1.000000 0.000000 0.000000 0.000000 1.000000 0.000000 0.000000 0.000000 1.000000 2780.dat
1 0 80.000000 30.000010 -69.999980 1.000000 0.000000 0.000000 0.000000 1.000000 0.000000 0.000000 0.000000 1.000000 2780.dat
0 STEP
1 151 69.999980 70.000010 -29.999990 0.000000 0.000000 -1.000000 0.000000 1.000000 0.000000 1.000000 0.000000 0.000000 95652.dat
0 STEP
0 NOFILE
0 FILE color_sensor_mount
0 color_sensor_mount
0 Name:  color_sensor_mount
0 Author:  
0 CustomBrick
0 FlexibleBrickControlPointUnitLength -1
0 FlexibleBrickLockedControlPoint 
0 NumOfBricks:  4
1 71 85.847510 -24.500000 -21.152500 1.000000 0.000000 0.000000 0.000000 -1.000000 0.000000 0.000000 0.000000 -1.000000 4519.dat
1 0 65.847500 -24.499990 -21.152500 0.000000 -1.000000 0.000000 0.000000 0.000000 1.000000 -1.000000 0.000000 0.000000 60483.dat
0 STEP
1 151 85.847510 -24.500000 -21.152500 -1.000000 0.000000 0.000000 0.000000 0.000000 -1.000000 0.000000 -1.000000 0.000000 95650.dat
1 0 106.457500 -4.499990 -21.152500 0.000001 -1.000000 0.000000 0.000000 0.000000 -1.000000 1.000000 0.000001 0.000000 33299.dat
0 STEP
0 NOFILE
0 FILE cuboid
0 cuboid
0 Name:  cuboid
0 Author:  SHIN KUBOAKI
0 CustomBrick
0 FlexibleBrickControlPointUnitLength -1
0 FlexibleBrickLockedControlPoint 
0 NumOfBricks:  34
1 71 30.000020 -88.199010 -110.000000 0.000000 0.000000 1.000000 0.000000 1.000000 0.000000 -1.000000 0.000000 0.000000 64179.dat
1 1 10.000020 -108.199000 -70.000060 0.000000 -1.000000 0.000000 -1.000000 0.000000 0.000001 -0.000001 0.000000 -1.000000 6558.dat
1 1 -30.000000 -108.199000 -70.000060 0.000000 0.000000 -1.000000 -1.000000 0.000000 0.000000 0.000000 1.000000 0.000000 6558.dat
1 1 50.000030 -108.199000 -70.000060 0.000000 -1.000000 0.000000 -1.000000 0.000000 0.000001 -0.000001 0.000000 -1.000000 6558.dat
1 1 90.000040 -108.199100 -70.000060 0.000000 -1.000000 0.000000 -1.000000 0.000000 0.000001 -0.000001 0.000000 -1.000000 6558.dat
1 1 90.000040 -108.199000 -150.000100 0.000000 -1.000000 0.000000 -1.000000 0.000000 0.000001 -0.000001 0.000000 -1.000000 6558.dat
1 1 50.000040 -108.199000 -150.000100 0.000000 -1.000000 0.000000 -1.000000 0.000000 0.000001 -0.000001 0.000000 -1.000000 6558.dat
1 1 10.000020 -108.199000 -150.000100 0.000000 -1.000000 0.000000 -1.000000 0.000000 0.000001 -0.000001 0.000000 -1.000000 6558.dat
1 1 -29.999980 -108.199000 -150.000000 0.000000 -1.000000 0.000000 -1.000000 0.000000 0.000001 -0.000001 0.000000 -1.000000 6558.dat
0 STEP
1 2 -9.999969 -128.199000 -150.000100 0.000000 0.000000 -1.000000 0.000000 -1.000000 0.000000 -1.000000 0.000000 0.000000 32523.dat
1 2 -9.999980 -108.199000 -150.000100 0.000000 0.000000 -1.000000 0.000000 -1.000000 0.000000 -1.000000 0.000000 0.000000 32523.dat
1 1 70.000020 -108.199000 -70.000040 0.000000 0.000000 -1.000000 0.000000 -1.000000 0.000000 -1.000000 0.000000 0.000000 32523.dat
1 1 70.000030 -128.199000 -70.000060 0.000000 0.000000 -1.000000 0.000000 -1.000000 0.000000 -1.000000 0.000000 0.000000 32523.dat
1 4 70.000060 -128.199000 -150.000100 0.000000 0.000000 -1.000000 0.000000 -1.000000 0.000000 -1.000000 0.000000 0.000000 32523.dat
1 4 70.000030 -108.199000 -150.000100 0.000000 0.000000 -1.000000 0.000000 -1.000000 0.000000 -1.000000 0.000000 0.000000 32523.dat
1 14 -9.999980 -108.199000 -70.000060 0.000000 0.000000 -1.000000 0.000000 -1.000000 0.000000 -1.000000 0.000000 0.000000 32523.dat
1 14 -9.999980 -128.199000 -70.000070 0.000000 0.000000 -1.000000 0.000000 -1.000000 0.000000 -1.000000 0.000000 0.000000 32523.dat
0 STEP
1 0 -9.999980 -138.199000 -70.000080 0.000000 0.000000 1.000000 -1.000000 0.000000 0.000000 0.000000 -1.000000 0.000000 2780.dat
1 0 70.000030 -138.199000 -70.000060 0.000000 0.000000 1.000000 -1.000000 0.000000 0.000000 0.000000 -1.000000 0.000000 2780.dat
1 0 70.000060 -138.199000 -150.000100 0.000000 0.000000 1.000000 -1.000000 0.000000 0.000000 0.000000 -1.000000 0.000000 2780.dat
1 0 -9.999980 -138.199000 -150.000100 0.000000 0.000000 1.000000 -1.000000 0.000000 0.000000 0.000000 -1.000000 0.000000 2780.dat
0 STEP
1 71 29.999610 -168.199100 -109.999800 0.000000 0.000000 1.000000 0.000000 -1.000000 0.000000 1.000000 0.000000 0.000000 64179.dat
1 0 -30.000700 -158.199100 -69.999460 0.000000 0.000000 1.000007 1.000000 0.000000 0.000000 0.000000 1.000007 0.000000 2780.dat
1 0 9.999590 -158.199100 -69.999440 0.000000 0.000000 1.000007 1.000000 0.000000 0.000000 0.000000 1.000007 0.000000 2780.dat
1 0 49.999880 -158.199100 -69.999480 0.000000 0.000000 1.000007 1.000000 0.000000 0.000000 0.000000 1.000007 0.000000 2780.dat
1 0 90.000130 -158.199000 -69.999480 0.000000 0.000000 1.000007 1.000000 0.000000 0.000000 0.000000 1.000007 0.000000 2780.dat
1 0 90.000110 -158.199000 -150.000100 0.000000 0.000000 1.000007 1.000000 0.000000 0.000000 0.000000 1.000007 0.000000 2780.dat
1 0 49.999900 -158.199000 -150.000100 0.000000 0.000000 1.000007 1.000000 0.000000 0.000000 0.000000 1.000007 0.000000 2780.dat
1 0 9.999570 -158.199000 -150.000100 0.000000 0.000000 1.000007 1.000000 0.000000 0.000000 0.000000 1.000007 0.000000 2780.dat
1 0 -30.000720 -158.199100 -150.000100 0.000000 0.000000 1.000007 1.000000 0.000000 0.000000 0.000000 1.000007 0.000000 2780.dat
0 STEP
1 1 70.000060 -148.199100 -69.999480 0.000001 0.000000 -1.000007 0.000000 1.000000 0.000000 1.000007 0.000000 0.000001 32523.dat
1 14 -10.000570 -148.199100 -69.999440 0.000001 0.000000 -1.000007 0.000000 1.000000 0.000000 1.000007 0.000000 0.000001 32523.dat
1 4 70.000060 -148.199000 -150.000100 0.000001 0.000000 -1.000007 0.000000 1.000000 0.000000 1.000007 0.000000 0.000001 32523.dat
1 2 -10.000590 -148.199100 -150.000100 0.000001 0.000000 -1.000007 0.000000 1.000000 0.000000 1.000007 0.000000 0.000001 32523.dat
0 STEP
0 STEP
0 NOFILE
