0 Untitled Model
0 Name:  cuboid
0 Author:  SHIN KUBOAKI
0 CustomBrick
0 NumOfBricks:  34
1 71 30.000020 -88.199010 -110.000000 0.000000 0.000000 1.000000 0.000000 1.000000 0.000000 -1.000000 0.000000 0.000000 64179.dat
1 1 10.000020 -108.199000 -70.000060 0.000000 -1.000000 0.000000 -1.000000 0.000000 0.000001 -0.000001 0.000000 -1.000000 6558.dat
1 1 -30.000000 -108.199000 -70.000060 0.000000 0.000000 -1.000000 -1.000000 0.000000 0.000000 0.000000 1.000000 0.000000 6558.dat
1 1 50.000030 -108.199000 -70.000060 0.000000 -1.000000 0.000000 -1.000000 0.000000 0.000001 -0.000001 0.000000 -1.000000 6558.dat
1 1 90.000040 -108.199100 -70.000060 0.000000 -1.000000 0.000000 -1.000000 0.000000 0.000001 -0.000001 0.000000 -1.000000 6558.dat
1 1 90.000040 -108.199000 -150.000100 0.000000 -1.000000 0.000000 -1.000000 0.000000 0.000001 -0.000001 0.000000 -1.000000 6558.dat
1 1 50.000040 -108.199000 -150.000100 0.000000 -1.000000 0.000000 -1.000000 0.000000 0.000001 -0.000001 0.000000 -1.000000 6558.dat
1 1 10.000020 -108.199000 -150.000100 0.000000 -1.000000 0.000000 -1.000000 0.000000 0.000001 -0.000001 0.000000 -1.000000 6558.dat
1 1 -29.999980 -108.199000 -150.000000 0.000000 -1.000000 0.000000 -1.000000 0.000000 0.000001 -0.000001 0.000000 -1.000000 6558.dat
0 STEP
1 2 -9.999969 -128.199000 -150.000100 0.000000 0.000000 -1.000000 0.000000 -1.000000 0.000000 -1.000000 0.000000 0.000000 32523.dat
1 2 -9.999980 -108.199000 -150.000100 0.000000 0.000000 -1.000000 0.000000 -1.000000 0.000000 -1.000000 0.000000 0.000000 32523.dat
1 1 70.000020 -108.199000 -70.000040 0.000000 0.000000 -1.000000 0.000000 -1.000000 0.000000 -1.000000 0.000000 0.000000 32523.dat
1 1 70.000030 -128.199000 -70.000060 0.000000 0.000000 -1.000000 0.000000 -1.000000 0.000000 -1.000000 0.000000 0.000000 32523.dat
1 4 70.000060 -128.199000 -150.000100 0.000000 0.000000 -1.000000 0.000000 -1.000000 0.000000 -1.000000 0.000000 0.000000 32523.dat
1 4 70.000030 -108.199000 -150.000100 0.000000 0.000000 -1.000000 0.000000 -1.000000 0.000000 -1.000000 0.000000 0.000000 32523.dat
1 14 -9.999980 -108.199000 -70.000060 0.000000 0.000000 -1.000000 0.000000 -1.000000 0.000000 -1.000000 0.000000 0.000000 32523.dat
1 14 -9.999980 -128.199000 -70.000070 0.000000 0.000000 -1.000000 0.000000 -1.000000 0.000000 -1.000000 0.000000 0.000000 32523.dat
0 STEP
1 0 -9.999980 -138.199000 -70.000080 0.000000 0.000000 1.000000 -1.000000 0.000000 0.000000 0.000000 -1.000000 0.000000 2780.dat
1 0 70.000030 -138.199000 -70.000060 0.000000 0.000000 1.000000 -1.000000 0.000000 0.000000 0.000000 -1.000000 0.000000 2780.dat
1 0 70.000060 -138.199000 -150.000100 0.000000 0.000000 1.000000 -1.000000 0.000000 0.000000 0.000000 -1.000000 0.000000 2780.dat
1 0 -9.999980 -138.199000 -150.000100 0.000000 0.000000 1.000000 -1.000000 0.000000 0.000000 0.000000 -1.000000 0.000000 2780.dat
0 STEP
1 71 29.999610 -168.199100 -109.999800 0.000000 0.000000 1.000000 0.000000 -1.000000 0.000000 1.000000 0.000000 0.000000 64179.dat
1 0 -30.000700 -158.199100 -69.999460 0.000000 0.000000 1.000007 1.000000 0.000000 0.000000 0.000000 1.000007 0.000000 2780.dat
1 0 9.999590 -158.199100 -69.999440 0.000000 0.000000 1.000007 1.000000 0.000000 0.000000 0.000000 1.000007 0.000000 2780.dat
1 0 49.999880 -158.199100 -69.999480 0.000000 0.000000 1.000007 1.000000 0.000000 0.000000 0.000000 1.000007 0.000000 2780.dat
1 0 90.000130 -158.199000 -69.999480 0.000000 0.000000 1.000007 1.000000 0.000000 0.000000 0.000000 1.000007 0.000000 2780.dat
1 0 90.000110 -158.199000 -150.000100 0.000000 0.000000 1.000007 1.000000 0.000000 0.000000 0.000000 1.000007 0.000000 2780.dat
1 0 49.999900 -158.199000 -150.000100 0.000000 0.000000 1.000007 1.000000 0.000000 0.000000 0.000000 1.000007 0.000000 2780.dat
1 0 9.999570 -158.199000 -150.000100 0.000000 0.000000 1.000007 1.000000 0.000000 0.000000 0.000000 1.000007 0.000000 2780.dat
1 0 -30.000720 -158.199100 -150.000100 0.000000 0.000000 1.000007 1.000000 0.000000 0.000000 0.000000 1.000007 0.000000 2780.dat
0 STEP
1 1 70.000060 -148.199100 -69.999480 0.000001 0.000000 -1.000007 0.000000 1.000000 0.000000 1.000007 0.000000 0.000001 32523.dat
1 14 -10.000570 -148.199100 -69.999440 0.000001 0.000000 -1.000007 0.000000 1.000000 0.000000 1.000007 0.000000 0.000001 32523.dat
1 4 70.000060 -148.199000 -150.000100 0.000001 0.000000 -1.000007 0.000000 1.000000 0.000000 1.000007 0.000000 0.000001 32523.dat
1 2 -10.000590 -148.199100 -150.000100 0.000001 0.000000 -1.000007 0.000000 1.000000 0.000000 1.000007 0.000000 0.000001 32523.dat
0 STEP
0 STEP
